<svg width="71" height="71" viewBox="0 0 71 71" fill="none" xmlns="http://www.w3.org/2000/svg">
<path d="M5.18911 17.7887L35 0.57735L64.8109 17.7887V52.2113L35 69.4226L5.18911 52.2113V17.7887Z" fill="white" stroke="#0E0E0E"/>
<path d="M18.2867 65.3084L1.0754 35.4976L18.2867 5.68667H52.7094L69.9207 35.4976L52.7094 65.3084H18.2867Z" stroke="#0E0E0E"/>
<path d="M35 49L23 41V28.5M35 49L47 41V28.5M35 49V35M47 28.5L35 20L23 28.5M47 28.5L35 35M23 28.5L35 35" stroke="black" stroke-width="1.5"/>
<path d="M34.999 20L46.999 28L46.999 40.5M34.999 20L22.999 28L22.999 40.5M34.999 20L34.999 34M22.999 40.5L34.999 49L46.999 40.5M22.999 40.5L34.999 34M46.999 40.5L34.999 34" stroke="black" stroke-width="1.5"/>
</svg>
