<svg width="24" height="16" viewBox="0 0 24 16" fill="none" xmlns="http://www.w3.org/2000/svg">
<path d="M0 0V14.7626H7.1554C7.8167 14.7626 8.4632 14.6794 9.0851 14.5146C9.7139 14.3492 10.2756 14.0943 10.7643 13.7485C11.2493 13.4054 11.6427 12.9605 11.932 12.4116C12.2182 11.8696 12.3614 11.2246 12.3614 10.4762C12.3614 9.553 12.1424 8.7653 11.6939 8.1072C11.2479 7.453 10.5752 6.9933 9.6665 6.7326C10.3339 6.4165 10.8323 6.0099 11.1725 5.5149C11.5096 5.0182 11.6783 4.3975 11.6783 3.6542C11.6783 2.9669 11.5656 2.3865 11.3408 1.9224C11.1102 1.4515 10.7888 1.0772 10.3776 0.7958C9.96 0.515 9.4656 0.3101 8.8864 0.1873C8.3037 0.0611997 7.6664 0.000100136 6.96 0.000100136L0 0ZM15.6674 0.9903V2.447H21.6518V0.9903H15.6674ZM3.2509 2.5143H6.2916C6.5789 2.5143 6.8599 2.5347 7.1275 2.5874C7.4003 2.634 7.6355 2.7214 7.8435 2.8469C8.0531 2.9674 8.2189 3.1399 8.3445 3.3601C8.4653 3.5804 8.5251 3.8639 8.5251 4.2075C8.5251 4.8264 8.344 5.2777 7.97 5.5501C7.5922 5.8276 7.1157 5.9648 6.5396 5.9648H3.2509V2.5143ZM18.7959 3.7707C17.9769 3.7707 17.2372 3.9169 16.5665 4.2067C15.896 4.4971 15.3202 4.8942 14.8347 5.3982C14.3501 5.8993 13.9812 6.4968 13.7147 7.1891C13.4535 7.8791 13.3205 8.6257 13.3205 9.4251C13.3205 10.2519 13.4489 11.0142 13.704 11.7037C13.962 12.396 14.3238 12.9859 14.7896 13.4847C15.2676 13.9814 15.8356 14.3631 16.5156 14.6344C17.1962 14.9034 17.9538 15.0392 18.7959 15.0392C20.0039 15.0392 21.0405 14.7621 21.8908 14.2066C22.7507 13.6538 23.381 12.7356 23.7966 11.4492H21.2116C21.1116 11.7799 20.8526 12.0982 20.4276 12.3959C19.9981 12.6947 19.4859 12.8451 18.8936 12.8451C18.0703 12.8451 17.4348 12.6283 16.9951 12.1989C16.5539 11.7695 16.2684 10.97 16.2684 10.1247H23.9814C24.0366 9.2956 23.9692 8.5029 23.7769 7.745C23.5831 6.9849 23.2736 6.3085 22.8376 5.716C22.4021 5.1229 21.8472 4.6493 21.1706 4.2995C20.4918 3.9452 19.7003 3.7707 18.7959 3.7707V3.7707ZM18.7072 5.9877C19.4281 5.9877 20.0198 6.1969 20.3684 6.5831C20.7187 6.9721 20.9749 7.5263 21.045 8.2746H16.2684C16.282 8.0661 16.3264 7.8302 16.4023 7.5701C16.4772 7.3033 16.6062 7.0537 16.7956 6.8171C16.9861 6.5845 17.2358 6.3861 17.5396 6.2275C17.8505 6.0667 18.2382 5.9878 18.7072 5.9878V5.9877ZM3.251 8.1836H6.7844C7.484 8.1836 8.0526 8.3438 8.4792 8.6672C8.9051 8.9952 9.1197 9.5357 9.1197 10.2964C9.1197 10.6849 9.0565 11.0058 8.9251 11.253C8.7941 11.5025 8.6145 11.6996 8.3971 11.8426C8.1799 11.9917 7.9218 12.0924 7.631 12.1563C7.3448 12.2202 7.0405 12.2483 6.7195 12.2483H3.2509L3.251 8.1836Z" fill="white"/>
</svg>
